<svg width="217" height="217" viewBox="0 0 217 217" fill="none" xmlns="http://www.w3.org/2000/svg">
<g clip-path="url(#clip0)">
<path d="M64.79 130.94C64.57 130.93 63.59 130.36 63.38 130.14C62.75 129.46 62.29 128.12 62.98 126.11C63.84 123.62 73.41 108.83 75.76 101.87C76.36 100.1 77.36 99.19 78.66 99.24C78.82 99.25 78.99 99.27 79.16 99.3C80.7 99.62 81.38 100.79 81.32 102.98C81.28 104.41 80.98 107.32 81.2 107.5C81.42 107.68 81.93 106.92 81.96 106.87C83.7 104.2 85.67 101.16 88.28 98.79C89.03 98.11 90.04 97.28 91.32 96.81C91.89 96.6 92.46 96.51 93 96.53C94.67 96.59 95.96 97.68 96.46 99.45C97.13 101.87 96.9 104.25 96.35 107.09C95.9 109.41 94.09 117.64 94.14 118.44C94.19 119.21 94.88 118.73 95.55 118.15C96.4 117.4 98.72 114.39 100.57 110.61C101.32 109.07 101.73 107.79 102.25 106.4C103.33 103.54 104.35 100.98 105.93 98.61C107.03 96.98 108.26 95.7 109.7 94.71C111 93.81 112.32 93.38 113.62 93.43C115.35 93.49 116.93 94.42 118.19 96.1C118.57 96.61 118.83 97.02 119.02 97.42C119.33 98.08 119.71 98.76 120.61 99.18C121.62 99.64 122.02 100.76 121.73 102.32L121.56 103.24C121.21 105.13 120.87 107.08 120.56 109C119.92 112.99 120.04 115.29 123.6 110.18C124.63 108.71 125.9 106.22 126.42 103.93C127.35 99.82 129.24 96.22 132.05 93.24C133.48 91.72 134.91 91.05 136.57 91.11C136.74 91.12 136.91 91.13 137.09 91.15C138.74 91.36 140.18 92.57 140.52 94.03C140.79 95.18 140.47 96.11 139.58 96.79C139.06 97.19 138.52 97.38 137.95 97.36C137.53 97.35 137.1 97.21 136.69 96.96C136.49 96.84 136.34 96.79 136.2 96.78C135.99 96.77 135.81 96.88 135.6 97.12C132.9 100.37 131.02 104.35 130.71 107.98C130.64 108.78 130.63 110.57 132.04 110.51C133 110.47 134.43 109.76 137.28 105.96C140.46 101.73 141.73 101.24 144.3 95.12C147.09 88.47 149.4 81.53 151.64 74.81C152.36 72.65 153.11 70.41 153.86 68.22C154.34 66.83 155.38 65.99 156.57 66.03C156.8 66.04 157.04 66.08 157.28 66.15C158.71 66.59 159.44 67.98 158.93 69.74C157.27 75.41 155.35 80.38 153.25 86.03C153 86.7 152.34 88.33 151.99 89.26C151.92 89.44 152.14 89.58 152.28 89.45C152.54 89.19 152.89 88.83 153.26 88.33C153.82 87.6 154.37 86.84 155.06 86.21C155.89 85.46 156.76 84.68 158.03 84.73H158.06C160.14 84.82 161.81 86.59 162.12 89.04C162.3 90.45 161.97 91.81 161.13 93.19C159.79 95.39 157.8 97.22 154.86 98.96C154.59 99.12 154.33 99.31 154.29 99.57C154.26 99.77 154.36 99.99 154.61 100.26C155.03 100.72 155.42 101.23 155.8 101.73C156.48 102.61 157.17 103.52 158.09 104.24C158.31 104.41 158.49 104.5 158.67 104.5C159.21 104.5 160.03 103.54 160.19 103.36C164.27 98.79 167.69 94.21 170.65 89.48L170.67 89.45C170.88 89.12 171.09 88.78 170.82 88.27C169.31 85.41 169.38 82.45 171.03 79.21C172.01 77.29 173.52 76.23 175.18 76.29C175.34 76.3 175.51 76.31 175.68 76.34C177.54 76.65 179.03 78.45 179.32 80.72C179.65 83.32 178.61 85.65 177.61 87.63C177.23 88.38 177.28 88.91 177.77 89.57C179.86 92.38 181.6 95.45 182.93 98.7C183.77 100.75 184 102.49 183.65 104.15C182.96 107.44 179.75 110.3 175.8 110.8C172.4 111.23 170.12 110.1 168.29 108.92C167.25 108.25 166.78 106.87 167.37 105.64C167.82 104.71 168.77 104.14 169.79 104.17C171.05 104.2 172.05 105.56 174.2 105.64C176.13 105.71 177.33 105.17 178.06 104.21C178.48 103.66 178.65 102.78 178.46 102.02C177.82 99.48 176.52 97.32 175.14 95.03C174.89 94.62 174.3 93.62 174.3 93.62C174.3 93.62 173.74 94.41 173.65 94.55C170.71 98.88 167.57 102.92 164.34 106.55C163.53 107.46 162.53 108.49 161.25 109.23C160.32 109.77 159.38 110.03 158.46 109.99C157.44 109.95 156.41 109.56 155.42 108.83C153.45 107.37 151.97 105.41 150.55 103.52C150.33 103.23 148.83 100.92 148.83 100.92C148.83 100.92 146.75 109.88 146.21 111.87C145.79 113.41 144.73 114.4 143.45 114.3C142.18 114.2 141.53 113.56 141.23 112.98C140.86 112.27 140.83 111.34 141.16 110.31L142.35 105.56C142.35 105.56 137.45 111.19 135.25 113.1C134.29 113.94 133.15 114.89 131.89 115.6C131.01 116.1 129.92 116.28 129.17 116.25C127.88 116.2 125.92 115.29 125.92 111.79C124.82 114.25 123.05 116.71 121.93 117.69C120.92 118.58 119.67 118.99 118.85 119.02C118.01 119.06 117.22 118.96 116.44 118.02C115.99 117.48 115.68 116.59 115.62 115.86C115.56 115.13 115.62 113.75 115.62 113.75C115.62 113.75 115.12 115.29 114.43 116.64C113.41 118.65 110.65 121.12 107.24 121.26C105.18 121.35 103.36 119.99 102.38 118.06C102.28 117.86 101.76 116.79 101.46 115.3C101.45 115.23 97.77 120.73 95.59 122.91C94.15 124.35 92.06 125.04 90.37 124.34C89.13 123.82 88.38 122.17 88.74 119.27C89.1 116.37 90.29 110.98 90.73 108.51C91.04 106.82 91.38 105.52 91.5 104.58C91.57 104 90.84 103.67 90.46 104.12C90.46 104.12 90.46 104.12 90.45 104.13C86.64 108.71 83.78 113.98 81.27 118.99C79.85 121.81 78.78 124.52 77.98 127.26C77.59 128.62 76.54 129.46 75.3 129.42C75.08 129.41 74.85 129.37 74.62 129.31C73.2 128.9 72.51 127.47 72.9 125.75C73.97 121.03 74.81 116.12 75.63 110.77C75.7 110.3 75.51 110.3 75.34 110.52C75.34 110.52 70.79 120.19 68.08 125.07C67.21 126.56 64.98 130.95 64.79 130.94ZM113.53 98.7C112.03 98.86 110.89 100.56 110.15 101.71C108.75 103.92 107.8 106.41 107.02 108.57C106.26 110.67 105.49 115.62 107.52 115.97C109.22 116.26 114.42 107.82 114.88 102.72C114.96 101.22 115.03 98.54 113.53 98.7ZM154.61 90.86C154 91.47 153.58 92.35 153.38 92.86C153.11 93.55 153.13 94.18 154.37 93.71C155.37 93.33 157.41 92.11 157.67 91.11C157.78 90.69 157.75 90.33 157.57 90.06C157.41 89.81 157.14 89.64 156.57 89.74C155.88 89.85 155.25 90.22 154.61 90.86ZM173.57 80.55C173.22 80.98 172.94 81.59 173.08 82.48C173.23 83.47 173.69 84.61 174.12 84.62C174.39 84.63 175.7 82.79 175.77 81.3C175.82 80.19 175.41 79.92 174.91 79.9C174.44 79.88 173.92 80.12 173.57 80.55Z" fill="#00C805"/>
<path d="M66.67 91.32C67.27 88.58 67.08 85.8 65.82 83.27C64.34 80.31 61.43 78.52 58.15 78.39C55 78.26 51.89 79.28 49.98 81.9C48.4 84.07 47.8 86.94 48.34 89.57C49.45 94.91 53.49 99.06 57.09 102.9C61.71 107.82 65.05 113.75 65.97 120.5C66.31 122.98 66.29 125.42 65.9 127.88C65.58 129.94 64.79 131.97 63.86 133.82C61.42 138.68 57.33 142.56 52.36 144.74C48.74 146.32 44.55 146.87 40.64 146.39C36.06 145.83 31.54 143.98 28.19 140.73C24.63 137.27 22.09 132.87 21.37 127.9C20.91 124.73 20.98 121.52 22 118.46C23.03 115.36 24.94 112.6 27.42 110.49C28.47 109.59 29.61 108.61 31.08 108.76C32.34 108.89 33.43 109.78 33.81 110.99C34.17 112.16 33.81 113.47 32.9 114.29C32.44 114.7 31.91 115.02 31.44 115.43C30.9 115.9 30.39 116.41 29.94 116.97C26.28 121.48 27 128.44 30.16 133.04C31.88 135.56 34.21 137.43 37.04 138.57C38.44 139.14 39.91 139.39 41.41 139.52C46.12 139.92 50.8 138.14 54.21 134.9C56.35 132.87 57.98 130.18 58.72 127.32C59.27 125.2 59.23 122.97 58.94 120.81C58.49 117.42 57.22 114.24 55.37 111.37C53.88 109.07 52.04 107.09 50.26 105.02C46.55 100.73 43.12 95.81 42.28 90.07C41.36 83.8 44.51 77.08 50.26 74.24C56.33 71.24 64.33 72.48 68.76 77.73C70.32 79.58 71.43 81.83 72.01 84.18C72.44 85.9 72.58 87.66 72.46 89.43C72.4 90.27 72.28 91.1 72.12 91.92C71.99 92.61 71.82 93.24 71.33 93.77C69.47 95.77 66.09 93.97 66.67 91.32Z" fill="#00C805"/>
<path d="M108.27 216.61C57.6099 216.61 12.2199 180.79 2.05995 129.25C-9.49005 70.66 28.7799 13.61 87.3599 2.06002C145.94 -9.48997 203 28.77 214.55 87.36C226.1 145.95 187.83 203 129.25 214.55C122.21 215.94 115.19 216.61 108.27 216.61ZM108.34 7.16002C101.87 7.16002 95.3199 7.78002 88.7499 9.08002C34.0299 19.86 -1.71005 73.15 9.07995 127.86C19.8699 182.57 73.16 218.31 127.87 207.53C182.58 196.74 218.32 143.46 207.54 88.74C198.04 40.61 155.65 7.16002 108.34 7.16002Z" fill="#00C805"/>
<path d="M39.73 166.31L39.11 166.79C38.74 167.08 38.41 167.31 38.13 167.47C37.84 167.64 37.53 167.76 37.19 167.85C36.85 167.93 36.47 167.95 36.05 167.89C35.16 167.78 34.38 167.29 33.7 166.41L31.5 163.58L39.15 157.64L41.35 160.47C42.03 161.34 42.31 162.22 42.2 163.11C42.15 163.53 42.04 163.89 41.87 164.2C41.71 164.51 41.51 164.79 41.27 165.02C41.04 165.26 40.73 165.52 40.36 165.81L39.73 166.31ZM38.27 164.43C38.9 163.94 39.3 163.61 39.49 163.42C39.67 163.24 39.79 163.06 39.84 162.89C39.98 162.47 39.89 162.06 39.57 161.65L38.93 160.82L34.63 164.16L35.28 164.99C35.6 165.4 35.98 165.59 36.41 165.56C36.55 165.55 36.67 165.52 36.78 165.47C36.89 165.42 37.05 165.32 37.28 165.17C37.49 165.03 37.83 164.78 38.27 164.43Z" fill="#00C805"/>
<path d="M39.9 173.63L38.28 171.89L45.37 165.3L46.99 167.04L39.9 173.63Z" fill="#00C805"/>
<path d="M50.74 178.06C50.21 178.65 49.72 179.08 49.29 179.35C48.86 179.62 48.38 179.77 47.86 179.8C47.49 179.82 47.14 179.8 46.81 179.72C46.48 179.64 46.17 179.52 45.89 179.35C45.6 179.18 45.32 178.98 45.05 178.73C44.25 178.01 43.83 177.14 43.78 176.12C43.75 175.52 43.87 174.98 44.14 174.5C44.42 174.02 44.83 173.47 45.39 172.85L45.61 172.61L45.83 172.37C46.39 171.75 46.89 171.28 47.34 170.95C47.79 170.62 48.31 170.44 48.91 170.41C49.43 170.38 49.91 170.44 50.34 170.6C50.77 170.75 51.21 171.02 51.63 171.4C52.49 172.17 52.94 172.99 52.99 173.86C53.04 174.73 52.81 175.55 52.3 176.31L50.52 174.71C50.7 174.36 50.77 174.05 50.73 173.78C50.69 173.51 50.52 173.24 50.22 172.97C49.92 172.7 49.59 172.59 49.24 172.66C49.11 172.68 48.98 172.73 48.84 172.81C48.7 172.89 48.52 173.03 48.3 173.24C48.07 173.45 47.77 173.77 47.39 174.19C47.01 174.61 46.72 174.95 46.54 175.2C46.35 175.45 46.23 175.64 46.16 175.79C46.09 175.94 46.06 176.07 46.05 176.2C46.02 176.55 46.16 176.86 46.47 177.13C46.82 177.44 47.16 177.58 47.52 177.55C47.86 177.53 48.18 177.36 48.48 177.03L48.57 176.93L47.51 175.97L48.84 174.49L51.66 177.03L50.74 178.06Z" fill="#00C805"/>
<path d="M56.1699 187.31L50.8199 183.48L56.4499 175.6L61.7999 179.43L60.5699 181.15L57.1499 178.71L56.2099 180.03L59.1299 182.12L57.8999 183.84L54.9799 181.75L53.9899 183.14L57.4099 185.58L56.1699 187.31Z" fill="#00C805"/>
<path d="M66.42 189.89C66.11 190.44 65.7 190.84 65.18 191.07C64.66 191.31 64.1 191.39 63.49 191.32C62.88 191.25 62.27 191.04 61.67 190.71C60.97 190.32 60.41 189.89 59.99 189.44C59.57 188.98 59.27 188.44 59.1 187.8L61.18 187.22C61.27 187.55 61.46 187.85 61.75 188.14C62.04 188.43 62.36 188.67 62.73 188.88C63.54 189.33 64.08 189.31 64.37 188.8C64.49 188.58 64.53 188.39 64.48 188.21C64.43 188.03 64.29 187.85 64.05 187.67L63.11 186.95C62.42 186.42 61.99 185.86 61.83 185.25C61.67 184.64 61.79 183.96 62.21 183.23C62.5 182.72 62.88 182.33 63.36 182.07C63.84 181.81 64.37 181.69 64.96 181.73C65.55 181.76 66.16 181.96 66.79 182.31C67.41 182.66 67.91 183.04 68.28 183.47C68.65 183.89 68.92 184.38 69.07 184.92L67.03 185.49C66.94 185.15 66.78 184.88 66.56 184.69C66.34 184.49 66.06 184.29 65.71 184.1C65.38 183.91 65.08 183.85 64.82 183.91C64.56 183.97 64.37 184.1 64.25 184.31C64.17 184.46 64.15 184.62 64.2 184.8C64.26 185.01 64.4 185.2 64.64 185.38L65.58 186.09C66.26 186.61 66.68 187.16 66.85 187.72C66.95 188.05 66.97 188.4 66.89 188.76C66.81 189.12 66.65 189.47 66.42 189.89Z" fill="#00C805"/>
<path d="M77.2 189.68L75.01 188.74L72.02 195.69L69.84 194.75L72.83 187.8L70.64 186.86L71.48 184.91L78.04 187.73L77.2 189.68Z" fill="#00C805"/>
<path d="M79.5799 198.44L77.3199 197.69L80.3699 188.5L82.6299 189.25L79.5799 198.44Z" fill="#00C805"/>
<path d="M90.96 198.46C90.86 198.9 90.69 199.28 90.46 199.59C90.23 199.9 89.96 200.14 89.64 200.32C89.32 200.5 88.97 200.6 88.57 200.64C88.18 200.68 87.78 200.65 87.36 200.55L83.26 199.59L85.47 190.16L89.38 191.07C90.02 191.22 90.54 191.46 90.93 191.79C91.33 192.12 91.6 192.52 91.73 192.99C91.86 193.46 91.87 193.96 91.74 194.5C91.63 194.96 91.43 195.32 91.13 195.58C90.83 195.84 90.55 196.02 90.27 196.12C90.54 196.38 90.75 196.69 90.91 197.04C91.08 197.41 91.09 197.88 90.96 198.46ZM88.68 197.78C88.73 197.55 88.71 197.34 88.61 197.15C88.51 196.96 88.32 196.83 88.02 196.76L86.46 196.39L86.07 198.04L87.63 198.41C87.92 198.48 88.16 198.45 88.33 198.32C88.5 198.19 88.62 198.01 88.68 197.78ZM89.4 194.09C89.45 193.88 89.43 193.68 89.33 193.5C89.23 193.32 89.04 193.19 88.75 193.13L87.31 192.79L86.95 194.32L88.39 194.66C88.67 194.73 88.9 194.7 89.07 194.58C89.24 194.46 89.35 194.3 89.4 194.09Z" fill="#00C805"/>
<path d="M100.31 202.61L93.92 201.83L95.09 192.22L97.45 192.51L96.54 200.02L100.57 200.51L100.31 202.61Z" fill="#00C805"/>
<path d="M110.29 202.93L103.71 202.82L103.87 193.14L110.45 193.25L110.41 195.37L106.21 195.3L106.18 196.92L109.77 196.98L109.74 199.1L106.15 199.04L106.12 200.75L110.32 200.82L110.29 202.93Z" fill="#00C805"/>
<path d="M124.1 193.97L119.94 194.56L120.18 196.24L123.74 195.73L124.04 197.83L120.48 198.34L121.01 202.05L118.66 202.38L117.3 192.8L123.81 191.87L124.1 193.97Z" fill="#00C805"/>
<path d="M130.83 200.19L128.51 200.73L126.32 191.3L128.64 190.76L130.83 200.19Z" fill="#00C805"/>
<path d="M141.77 196.86L139.8 197.52L135.32 193.88L136.86 198.5L134.61 199.25L131.55 190.07L133.52 189.41L138 193.05L136.46 188.43L138.71 187.68L141.77 196.86Z" fill="#00C805"/>
<path d="M152.66 191.96L150.42 193.02L149.39 191.91L146.7 193.18L146.89 194.68L144.64 195.74L143.68 185.48L145.34 184.69L152.66 191.96ZM147.98 190.38L146.14 188.39L146.46 191.1L147.98 190.38Z" fill="#00C805"/>
<path d="M161.73 186.43L159.97 187.54L154.76 185.07L157.35 189.19L155.34 190.45L150.19 182.25L151.95 181.14L157.16 183.61L154.57 179.49L156.58 178.23L161.73 186.43Z" fill="#00C805"/>
<path d="M168.55 177.27C168.81 177.72 168.98 178.18 169.06 178.63C169.14 179.08 169.14 179.51 169.05 179.92C168.96 180.33 168.8 180.71 168.56 181.06C168.32 181.41 168.03 181.74 167.67 182.02C166.83 182.69 165.91 182.97 164.89 182.85C164.29 182.78 163.78 182.58 163.35 182.23C162.92 181.88 162.45 181.38 161.93 180.73L161.73 180.48L161.52 180.23C161 179.58 160.62 179.01 160.37 178.51C160.12 178.01 160.03 177.47 160.09 176.87C160.15 176.36 160.29 175.9 160.51 175.49C160.74 175.08 161.07 174.7 161.51 174.35C161.89 174.05 162.27 173.82 162.67 173.67C163.07 173.52 163.47 173.45 163.88 173.45C164.29 173.45 164.71 173.54 165.13 173.72C165.55 173.9 165.96 174.16 166.35 174.52L164.46 176.03C164.2 175.84 163.93 175.73 163.67 175.7C163.4 175.67 163.13 175.77 162.84 176C162.68 176.13 162.56 176.27 162.48 176.43C162.4 176.59 162.36 176.75 162.36 176.9C162.36 177.03 162.39 177.18 162.44 177.32C162.49 177.47 162.6 177.67 162.77 177.92C162.94 178.17 163.2 178.53 163.57 178.99C164.06 179.6 164.43 180.01 164.67 180.22C164.91 180.43 165.14 180.57 165.35 180.62C165.69 180.7 166.02 180.61 166.34 180.36C166.62 180.14 166.78 179.89 166.81 179.62C166.84 179.35 166.79 179.07 166.66 178.77L168.55 177.27Z" fill="#00C805"/>
<path d="M174.5 175.86L172.78 177.5L166.1 170.5L167.82 168.86L174.5 175.86Z" fill="#00C805"/>
<path d="M182.44 167.21L180.8 169.08L179.42 168.47L177.46 170.71L178.23 172.01L176.59 173.88L171.63 164.86L172.84 163.48L182.44 167.21ZM177.51 167.63L175.03 166.54L176.4 168.9L177.51 167.63Z" fill="#00C805"/>
<path d="M187.92 159.5L184.23 164.78L176.29 159.24L177.65 157.29L183.85 161.62L186.18 158.29L187.92 159.5Z" fill="#00C805"/>
<path d="M195.29 145.66L194.4 147.54L188.67 148.24L193.06 150.34L192.04 152.49L183.3 148.32L184.2 146.44L189.93 145.74L185.54 143.64L186.56 141.5L195.29 145.66Z" fill="#00C805"/>
<path d="M198.9 135.69L196.78 141.92L187.62 138.79L189.74 132.56L191.74 133.24L190.38 137.22L191.91 137.74L193.07 134.34L195.07 135.02L193.91 138.42L195.53 138.97L196.89 134.99L198.9 135.69Z" fill="#00C805"/>
<path d="M192.74 118.98L201.72 123.47L201.34 125.38L196.35 125.98L200.73 128.45L200.35 130.34L190.34 131.06L190.83 128.62L196.09 128.38L191.38 125.84L191.71 124.19L197.03 123.66L192.26 121.42L192.74 118.98Z" fill="#00C805"/>
<path d="M199.93 111.06C200.56 111.1 201.1 111.31 201.53 111.67C201.97 112.03 202.28 112.51 202.48 113.09C202.68 113.67 202.75 114.31 202.71 114.99C202.65 115.79 202.51 116.48 202.28 117.06C202.05 117.64 201.69 118.14 201.19 118.57L199.77 116.94C200.03 116.72 200.22 116.42 200.35 116.03C200.48 115.65 200.57 115.25 200.6 114.83C200.66 113.91 200.4 113.43 199.83 113.39C199.58 113.37 199.39 113.42 199.25 113.54C199.11 113.66 199.01 113.87 198.95 114.16L198.7 115.32C198.52 116.17 198.19 116.8 197.71 117.2C197.23 117.61 196.56 117.79 195.72 117.73C195.13 117.69 194.62 117.51 194.18 117.19C193.74 116.87 193.4 116.44 193.18 115.89C192.96 115.34 192.87 114.71 192.92 113.99C192.97 113.28 193.1 112.66 193.32 112.14C193.54 111.62 193.86 111.18 194.29 110.81L195.68 112.4C195.42 112.63 195.24 112.89 195.15 113.17C195.06 113.45 195.01 113.79 194.98 114.2C194.95 114.58 195.03 114.88 195.19 115.09C195.36 115.3 195.56 115.41 195.79 115.43C195.96 115.44 196.12 115.39 196.25 115.27C196.41 115.13 196.52 114.92 196.58 114.63L196.82 113.47C197 112.63 197.31 112.01 197.75 111.62C198.01 111.39 198.32 111.22 198.67 111.13C199.04 111.06 199.45 111.03 199.93 111.06Z" fill="#00C805"/>
<path d="M38.4 73.18L36.79 77.21L30.5 77.62L30.03 78.8L35.32 80.91L33.93 84.39L19.74 78.72L21.99 73.1C22.4 72.08 22.96 71.3 23.67 70.74C24.38 70.18 25.17 69.86 26.01 69.75C26.85 69.65 27.68 69.76 28.49 70.08C29.38 70.44 30.05 70.96 30.5 71.67C30.95 72.37 31.21 73.11 31.27 73.88L38.4 73.18ZM27.08 73.57C26.83 73.47 26.57 73.44 26.3 73.47C26.03 73.5 25.79 73.61 25.56 73.79C25.33 73.97 25.16 74.21 25.04 74.52L24.25 76.5L27.11 77.64L27.9 75.66C28.02 75.35 28.06 75.06 28.02 74.78C27.98 74.5 27.88 74.25 27.71 74.04C27.55 73.82 27.33 73.67 27.08 73.57Z" fill="#00C805"/>
<path d="M41.15 54.93L41.57 55.22C42.27 55.7 42.86 56.15 43.33 56.55C43.8 56.95 44.21 57.4 44.55 57.91C44.9 58.42 45.13 58.99 45.24 59.64C45.38 60.43 45.38 61.18 45.23 61.91C45.08 62.64 44.74 63.38 44.22 64.14C43.87 64.65 43.49 65.08 43.1 65.41C42.71 65.75 42.29 66.02 41.84 66.22C41.39 66.42 40.9 66.57 40.37 66.66C39.44 66.83 38.57 66.75 37.76 66.41C36.95 66.08 36.01 65.53 34.93 64.79L34.51 64.5L34.09 64.21C33.01 63.46 32.17 62.77 31.57 62.14C30.97 61.5 30.58 60.72 30.41 59.79C30.26 58.98 30.27 58.22 30.42 57.51C30.57 56.8 30.91 56.06 31.43 55.31C31.95 54.55 32.53 53.97 33.14 53.58C33.75 53.19 34.47 52.91 35.26 52.77C35.9 52.65 36.52 52.67 37.12 52.81C37.72 52.95 38.29 53.18 38.83 53.48C39.37 53.78 39.99 54.17 40.69 54.66L41.15 54.93ZM39.02 58.02C37.95 57.28 37.2 56.81 36.75 56.61C36.31 56.41 35.93 56.32 35.61 56.34C35.37 56.34 35.12 56.42 34.86 56.57C34.6 56.72 34.38 56.93 34.19 57.2C34.01 57.46 33.89 57.74 33.85 58.02C33.8 58.3 33.82 58.57 33.89 58.81C33.95 59.01 34.05 59.2 34.2 59.4C34.35 59.6 34.61 59.85 34.98 60.16C35.36 60.47 35.91 60.88 36.66 61.39C37.4 61.9 37.98 62.27 38.4 62.51C38.82 62.75 39.15 62.91 39.39 62.97C39.62 63.03 39.84 63.06 40.05 63.05C40.63 63.02 41.11 62.74 41.47 62.21C41.84 61.67 41.94 61.13 41.76 60.57C41.65 60.25 41.43 59.93 41.1 59.6C40.79 59.29 40.09 58.75 39.02 58.02Z" fill="#00C805"/>
<path d="M56.83 43.64C57.32 44.17 57.66 44.72 57.87 45.29C58.07 45.86 58.15 46.43 58.1 47C58.05 47.57 57.87 48.13 57.57 48.68C57.27 49.23 56.87 49.73 56.39 50.18L51.5 54.69L41.13 43.44L45.79 39.15C46.55 38.45 47.32 37.99 48.11 37.76C48.9 37.53 49.65 37.54 50.38 37.78C51.11 38.02 51.77 38.46 52.37 39.11C52.87 39.65 53.16 40.24 53.24 40.86C53.32 41.48 53.3 42.02 53.19 42.47C53.76 42.35 54.36 42.34 54.97 42.45C55.58 42.55 56.2 42.95 56.83 43.64ZM49.74 41.79C49.51 41.54 49.23 41.4 48.91 41.36C48.59 41.33 48.25 41.47 47.9 41.79L46.18 43.37L47.86 45.2L49.58 43.62C49.92 43.31 50.09 42.99 50.09 42.66C50.08 42.33 49.97 42.04 49.74 41.79ZM53.92 46.02C53.67 45.75 53.38 45.59 53.04 45.55C52.71 45.51 52.36 45.65 52.01 45.98L50.14 47.7L51.95 49.67L53.82 47.95C54.17 47.63 54.33 47.29 54.32 46.95C54.31 46.6 54.18 46.29 53.92 46.02Z" fill="#00C805"/>
<path d="M68.25 41.42L65.08 43.43L56.9 30.52L60.07 28.51L68.25 41.42Z" fill="#00C805"/>
<path d="M85.1599 33.63L82.1099 34.84L74.7199 29.5L77.5599 36.64L74.0699 38.02L68.4299 23.81L71.4799 22.6L78.8599 27.94L76.0199 20.8L79.5099 19.42L85.1599 33.63Z" fill="#00C805"/>
<path d="M102.93 30.33L99.22 30.86L98.36 24.86L94.41 25.42L95.27 31.42L91.56 31.95L89.4 16.82L93.11 16.29L93.94 22.11L97.9 21.55L97.07 15.73L100.79 15.2L102.93 30.33Z" fill="#00C805"/>
<path d="M121.25 23.51L121.21 24.02C121.14 24.87 121.05 25.6 120.94 26.21C120.83 26.82 120.64 27.4 120.37 27.95C120.1 28.5 119.71 28.99 119.22 29.41C118.61 29.93 117.95 30.3 117.25 30.53C116.55 30.76 115.74 30.84 114.82 30.76C114.2 30.71 113.65 30.6 113.16 30.43C112.67 30.26 112.23 30.03 111.83 29.74C111.43 29.45 111.06 29.1 110.72 28.69C110.11 27.96 109.75 27.17 109.64 26.31C109.53 25.45 109.53 24.36 109.64 23.05L109.68 22.54L109.72 22.03C109.83 20.72 110.01 19.65 110.26 18.81C110.51 17.97 111 17.25 111.72 16.63C112.35 16.1 113.01 15.73 113.7 15.5C114.4 15.28 115.2 15.21 116.11 15.28C117.03 15.36 117.81 15.57 118.46 15.9C119.11 16.24 119.7 16.72 120.22 17.34C120.64 17.84 120.94 18.38 121.11 18.98C121.29 19.57 121.38 20.18 121.38 20.8C121.39 21.42 121.35 22.15 121.28 23L121.25 23.51ZM117.51 23.2C117.62 21.9 117.65 21.02 117.6 20.54C117.55 20.06 117.44 19.68 117.27 19.42C117.15 19.21 116.96 19.04 116.7 18.89C116.44 18.74 116.15 18.65 115.82 18.63C115.5 18.6 115.21 18.64 114.94 18.74C114.67 18.84 114.45 18.98 114.27 19.17C114.13 19.32 114.01 19.51 113.91 19.73C113.81 19.95 113.72 20.31 113.64 20.79C113.56 21.27 113.48 21.96 113.4 22.86C113.32 23.75 113.29 24.44 113.29 24.93C113.29 25.42 113.32 25.78 113.38 26.02C113.44 26.26 113.53 26.46 113.64 26.63C113.96 27.12 114.43 27.39 115.08 27.45C115.73 27.5 116.25 27.32 116.64 26.89C116.86 26.64 117.03 26.28 117.15 25.83C117.29 25.37 117.4 24.49 117.51 23.2Z" fill="#00C805"/>
<path d="M139.56 28.4L139.41 28.89C139.15 29.7 138.91 30.39 138.66 30.96C138.41 31.53 138.11 32.05 137.72 32.53C137.34 33.01 136.85 33.4 136.28 33.7C135.57 34.07 134.85 34.29 134.11 34.37C133.37 34.44 132.57 34.34 131.69 34.06C131.1 33.87 130.58 33.64 130.14 33.37C129.7 33.1 129.32 32.78 128.99 32.41C128.66 32.04 128.38 31.62 128.13 31.14C127.69 30.3 127.51 29.44 127.59 28.58C127.67 27.71 127.91 26.65 128.3 25.4L128.45 24.91L128.6 24.42C128.99 23.17 129.4 22.16 129.83 21.4C130.26 20.64 130.9 20.04 131.74 19.6C132.47 19.22 133.19 19 133.92 18.93C134.65 18.86 135.45 18.97 136.32 19.24C137.2 19.52 137.92 19.89 138.48 20.36C139.04 20.83 139.51 21.43 139.88 22.15C140.18 22.73 140.35 23.32 140.39 23.94C140.43 24.56 140.39 25.17 140.26 25.77C140.13 26.37 139.94 27.08 139.69 27.9L139.56 28.4ZM135.98 27.28C136.37 26.04 136.59 25.18 136.65 24.7C136.71 24.22 136.68 23.83 136.57 23.53C136.49 23.3 136.35 23.09 136.13 22.89C135.91 22.69 135.64 22.54 135.33 22.44C135.02 22.34 134.73 22.32 134.44 22.35C134.16 22.39 133.91 22.48 133.69 22.63C133.52 22.75 133.36 22.9 133.22 23.1C133.07 23.3 132.91 23.62 132.72 24.08C132.53 24.54 132.31 25.19 132.04 26.05C131.77 26.9 131.58 27.57 131.48 28.05C131.37 28.53 131.32 28.88 131.33 29.13C131.34 29.38 131.38 29.59 131.45 29.78C131.65 30.33 132.06 30.7 132.67 30.89C133.29 31.08 133.84 31.01 134.32 30.68C134.59 30.48 134.83 30.17 135.05 29.76C135.29 29.35 135.59 28.52 135.98 27.28Z" fill="#00C805"/>
<path d="M156.53 37.34L155.9 38.42C155.53 39.06 155.18 39.59 154.86 40C154.54 40.42 154.15 40.79 153.7 41.11C153.25 41.43 152.7 41.68 152.06 41.85C150.69 42.21 149.26 41.95 147.75 41.07L142.86 38.21L150.56 25.01L155.45 27.87C156.96 28.75 157.89 29.87 158.25 31.24C158.42 31.88 158.47 32.48 158.42 33.03C158.37 33.58 158.23 34.1 158.03 34.59C157.83 35.08 157.54 35.63 157.16 36.27L156.53 37.34ZM153.29 35.45C153.92 34.36 154.32 33.63 154.48 33.26C154.64 32.89 154.71 32.56 154.68 32.28C154.64 31.59 154.26 31.04 153.55 30.63L152.12 29.79L147.79 37.22L149.22 38.06C149.93 38.47 150.59 38.53 151.21 38.23C151.41 38.13 151.57 38.02 151.7 37.89C151.83 37.76 152.01 37.51 152.26 37.15C152.49 36.78 152.84 36.21 153.29 35.45Z" fill="#00C805"/>
<path d="M87.3 165.92C86.6 165.92 85.89 165.68 85.31 165.19C84.01 164.09 83.85 162.15 84.95 160.85L95.67 148.21C99.44 143.77 106.01 143.08 110.62 146.64L118.49 152.73C120.49 154.28 123.33 153.98 124.97 152.06L136.63 138.36C137.73 137.07 139.67 136.91 140.97 138.01C142.26 139.11 142.42 141.05 141.32 142.35L129.66 156.05C125.89 160.48 119.33 161.16 114.72 157.6L106.85 151.51C104.85 149.97 102 150.26 100.36 152.19L89.64 164.83C89.04 165.55 88.17 165.92 87.3 165.92Z" fill="#00C805"/>
</g>
<defs>
<clipPath id="clip0">
<rect width="216.61" height="216.61" fill="white"/>
</clipPath>
</defs>
</svg>
